<svg xmlns="http://www.w3.org/2000/svg" viewBox="0 0 256 256">
    <rect width="256" height="256" rx="64" fill="#5b5bd6"/>
    <path fill="#fff" d="M197.58 129.06 146 110l-19-51.62a15.92 15.92 0 0 0-29.88 0L78 110l-51.62 19a15.92 15.92 0 0 0 0 29.88L78 178l19 51.62a15.92 15.92 0 0 0 29.88 0L146 178l51.62-19a15.92 15.92 0 0 0 0-29.88ZM137 164.22a8 8 0 0 0-4.74 4.74L112 223.85 91.78 169a8 8 0 0 0-4.78-4.78L32.15 144 87 123.78A8 8 0 0 0 91.78 119L112 64.15 132.22 119a8 8 0 0 0 4.78 4.78L191.85 144Z"/>
</svg>
